<svg width="20" height="21" viewBox="0 0 20 21" fill="none" xmlns="http://www.w3.org/2000/svg">
<path d="M17.0711 2.93117C13.1631 -0.976763 6.83798 -0.97735 2.9295 2.93117C-0.213059 6.07369 -0.806894 10.7464 1.051 14.4676L0.0209859 18.9983C-0.112894 19.5871 0.414881 20.1151 1.00398 19.9813L5.53466 18.9512C12.1222 22.2402 20 17.4786 20 10.002C20 7.33105 18.9598 4.81992 17.0711 2.93117ZM12.0862 12.4921H5.82835C5.37473 12.4921 5.007 12.1244 5.007 11.6707C5.007 11.2171 5.37473 10.8494 5.82835 10.8494H12.0862C12.5399 10.8494 12.9076 11.2171 12.9076 11.6707C12.9076 12.1244 12.5399 12.4921 12.0862 12.4921ZM14.1722 9.15456H5.82835C5.37473 9.15456 5.007 8.78683 5.007 8.33321C5.007 7.8796 5.37473 7.51187 5.82835 7.51187H14.1722C14.6258 7.51187 14.9936 7.8796 14.9936 8.33321C14.9936 8.78683 14.6258 9.15456 14.1722 9.15456Z" fill="#F4F3F3"/>
</svg>
